<svg height="496pt" viewBox="0 -29 496 496" width="496pt" xmlns="http://www.w3.org/2000/svg"><path d="m96 373.65625c-55.625 0-96-70.65625-96-168s40.375-168 96-168 96 70.65625 96 168-40.375 168-96 168zm0 0" fill="#f0bc5e"/><path d="m496 180.28125c0-16.882812-13.742188-30.625-30.625-30.625-8.175781 0-15.871094 3.183594-21.65625 8.96875l-7.03125 7.03125h-73.054688l-9.511718-10.871094c-65.136719-74.441406-159.21875-117.128906-258.121094-117.128906 17.441406 0 33.382812 6.960938 47.054688 19.503906 76.609374 11.144532 147.378906 49.128906 199.015624 108.152344l9.929688 11.351562v57.984376l-9.929688 11.351562c-8.023437 9.167969-16.726562 17.871094-25.773437 26.136719-13.375-6.648438-28.375-10.480469-44.296875-10.480469-50.617188 0-92.464844 37.832031-99.007812 86.679688-9.878907 2.367187-19.847657 4.3125-29.894532 5.777343-1.363281 1.246094-2.761718 2.398438-4.167968 3.542969h-138.929688v8c0 39.703125 32.296875 72 72 72h352c39.703125 0 72-32.296875 72-72v-8h-16.808594c-1.269531-6.242188-4.128906-11.847656-7.945312-16.664062.449218-2.417969.753906-4.855469.753906-7.335938 0-19.566406-14.144531-35.832031-32.734375-39.265625-3.433594-18.589844-19.699219-32.734375-39.265625-32.734375-19.542969 0-35.800781 14.113281-39.257812 32.664062-3.988282.734376-7.78125 2.191407-11.359376 4.085938-5.480468-6.695312-11.863281-12.597656-18.886718-17.6875 8.238281-7.726562 16.230468-15.742188 23.625-24.191406l9.511718-10.871094h73.054688l7.03125 7.03125c5.785156 5.785156 13.472656 8.96875 21.65625 8.96875 16.882812 0 30.625-13.746094 30.625-30.625 0-8.175781-3.183594-15.871094-8.96875-21.65625l-3.71875-3.71875 3.71875-3.71875c5.785156-5.785156 8.96875-13.472656 8.96875-21.65625zm-72 241.375h-352c-28.167969 0-51.535156-20.894531-55.433594-48h462.859375c-3.890625 27.105469-27.257812 48-55.425781 48zm-207.800781-64c2.066406-29.007812 26.273437-52 55.800781-52s53.726562 22.992188 55.800781 52zm183.800781-16c10.414062 0 19.214844 6.710938 22.527344 16h-45.046875c3.304687-9.289062 12.105469-16 22.519531-16zm39.191406 16c-1.113281-5.441406-3.359375-10.449219-6.4375-14.839844 2.308594-.738281 4.734375-1.160156 7.246094-1.160156 10.414062 0 19.214844 6.710938 22.527344 16zm16.3125-28.871094c-4.777344-2.007812-10.007812-3.128906-15.503906-3.128906-7.097656 0-14.039062 1.960938-20.121094 5.503906-3.335937-1.929687-6.910156-3.449218-10.757812-4.351562 2.96875-9.886719 12.039062-17.152344 22.878906-17.152344 11.566406 0 21.238281 8.222656 23.503906 19.128906zm-55.503906-51.128906c10.839844 0 19.910156 7.265625 22.878906 17.144531-9.320312 2.191407-17.335937 7.648438-22.878906 15.101563-5.542969-7.445313-13.558594-12.910156-22.878906-15.101563 2.96875-9.878906 12.039062-17.144531 22.878906-17.144531zm-32 32c10.839844 0 19.910156 7.265625 22.878906 17.144531-8.496094 2-15.855468 6.734375-21.3125 13.199219-2.238281-10.097656-6.03125-19.601562-11.070312-28.304688 2.984375-1.289062 6.191406-2.039062 9.503906-2.039062zm-12.199219 48h-12c-2.097656-37.839844-33.449219-68-71.800781-68s-69.703125 30.160156-71.800781 68h-12c2.113281-44.457031 38.832031-80 83.800781-80s81.6875 35.542969 83.800781 80zm119.917969-136.96875c2.722656 2.71875 4.28125 6.488281 4.28125 10.34375 0 8.066406-6.558594 14.625-14.625 14.625-3.847656 0-7.621094-1.558594-10.34375-4.28125l-11.71875-11.71875h-75.3125v-48h75.3125l11.71875-11.71875c2.722656-2.722656 6.488281-4.28125 10.34375-4.28125 8.066406 0 14.625 6.558594 14.625 14.625 0 3.847656-1.558594 7.621094-4.28125 10.34375l-15.03125 15.03125zm0 0"/><path d="m96 341.65625c38.28125 0 64-54.65625 64-136s-25.71875-136-64-136-64 54.65625-64 136 25.71875 136 64 136zm0-256c31.175781 0 48 61.832031 48 120s-16.824219 120-48 120-48-61.832031-48-120 16.824219-120 48-120zm0 0"/><path d="m88 228.183594v81.472656h16v-81.472656c9.289062-3.3125 16-12.113282 16-22.527344 0-10.417969-6.710938-19.214844-16-22.527344v-81.472656h-16v81.472656c-9.289062 3.3125-16 12.109375-16 22.527344 0 10.414062 6.710938 19.214844 16 22.527344zm8-30.527344c4.414062 0 8 3.582031 8 8 0 4.414062-3.585938 8-8 8s-8-3.585938-8-8c0-4.417969 3.585938-8 8-8zm0 0"/><path d="m485.65625 48c-3.648438-3.648438-5.65625-8.503906-5.65625-13.65625v-1.375c0-5.160156 2.007812-10.007812 5.65625-13.65625l8-8-11.3125-11.3125-8 8c-6.671875 6.671875-10.34375 15.535156-10.34375 24.96875v1.375c0 9.433594 3.671875 18.296875 10.34375 24.96875 3.648438 3.648438 5.65625 8.503906 5.65625 13.65625v1.375c0 5.160156-2.007812 10.007812-5.65625 13.65625l-16 16 11.3125 11.3125 16-16c6.671875-6.671875 10.34375-15.535156 10.34375-24.96875v-1.375c0-9.433594-3.671875-18.296875-10.34375-24.96875zm0 0"/><path d="m418.34375 88-16 16 11.3125 11.3125 16-16c6.671875-6.671875 10.34375-15.535156 10.34375-24.96875v-1.375c0-9.433594-3.671875-18.296875-10.34375-24.96875-3.648438-3.648438-5.65625-8.503906-5.65625-13.65625v-1.375c0-5.160156 2.007812-10.007812 5.65625-13.65625l8-8-11.3125-11.3125-8 8c-6.671875 6.671875-10.34375 15.535156-10.34375 24.96875v1.375c0 9.433594 3.671875 18.296875 10.34375 24.96875 3.648438 3.648438 5.65625 8.503906 5.65625 13.65625v1.375c0 5.152344-2.007812 10.007812-5.65625 13.65625zm0 0"/><path d="m362.34375 88-16 16 11.3125 11.3125 16-16c6.671875-6.671875 10.34375-15.535156 10.34375-24.96875v-1.375c0-9.433594-3.671875-18.296875-10.34375-24.96875-3.648438-3.648438-5.65625-8.503906-5.65625-13.65625v-1.375c0-5.160156 2.007812-10.007812 5.65625-13.65625l8-8-11.3125-11.3125-8 8c-6.671875 6.671875-10.34375 15.535156-10.34375 24.96875v1.375c0 9.433594 3.671875 18.296875 10.34375 24.96875 3.648438 3.648438 5.65625 8.503906 5.65625 13.65625v1.375c0 5.152344-2.007812 10.007812-5.65625 13.65625zm0 0"/><path d="m213.65625 171.3125 18.34375-18.34375 18.34375 18.34375 11.3125-11.3125-18.34375-18.34375 18.34375-18.34375-11.3125-11.3125-18.34375 18.34375-18.34375-18.34375-11.3125 11.3125 18.34375 18.34375-18.34375 18.34375zm0 0"/><path d="m285.65625 243.3125 18.34375-18.34375 18.34375 18.34375 11.3125-11.3125-18.34375-18.34375 18.34375-18.34375-11.3125-11.3125-18.34375 18.34375-18.34375-18.34375-11.3125 11.3125 18.34375 18.34375-18.34375 18.34375zm0 0"/></svg>